# xmcd
#
# Track frame offsets:
#	150
#	10696
#	31655
#	56720
#	80120
#	96009
#	126784
#	151147
#	169246
#	203465
#	223341
#	274382
#	311657
#
# Disc length: 4447 seconds
#
# Revision: 2
# Processed by: cddbd v1.5.1PL2 Copyright (c) Steve Scherf et al.
# Submitted via: EasyCDDAExtractor 8.0.2.1
#
DISCID=ae115d0d
DTITLE=Saxon - Le Bikini Toulouse 29-10-01 Disc 1
DYEAR=2001
DGENRE=Hard Rock
TTITLE0=Intro
TTITLE1=Killing Ground
TTITLE2=747 (Strangers In The Night)
TTITLE3=Dogs Of War
TTITLE4=Back To The Wall
TTITLE5=Dallas 1 PM
TTITLE6=Court Of The Crimson King
TTITLE7=Never Surrender
TTITLE8=Broken Heroes
TTITLE9=Dragon's Liar
TTITLE10=Conquistador
TTITLE11=Drum Solo
TTITLE12=Heavy Metal Thunder - Conquistador
EXTD=
EXTT0=
EXTT1=
EXTT2=
EXTT3=
EXTT4=
EXTT5=
EXTT6=
EXTT7=
EXTT8=
EXTT9=
EXTT10=
EXTT11=
EXTT12=
PLAYORDER=
